# xmcd CD database file
#
# Track frame offsets:
#	150
#	10700
#	22150
#	36855
#	51410
#	63487
#	75365
#	88500
#	101145
#	113745
#	126345
#	138790
#	152630
#	164565
#	177470
#	191817
#	205860
#	220685
#	234430
#	248562
#
# Disc length: 3481 seconds
#
# Revision: 1
# Processed by: cddbd v1.5.2PL0 Copyright (c) Steve Scherf et al.
# Submitted via: CDex 1.51
#
DISCID=100d9714
DTITLE=Art Tatum - Hold That Tiger!
DYEAR=2002
DGENRE=Jazz
TTITLE0=Tiger Rag
TTITLE1=St Louis Blues
TTITLE2=Sophisticated Lady
TTITLE3=Tea For Two
TTITLE4=Moonglow
TTITLE5=Emaline
TTITLE6=Love Me
TTITLE7=Cocktails For Two
TTITLE8=The Shout
TTITLE9=After You've Gone
TTITLE10=Liza (Take 'A')
TTITLE11=Liza (Take 'D')
TTITLE12=(I Would Do) Anything For You
TTITLE13=Gone With The Wind
TTITLE14=Stormy Weather
TTITLE15=Humoresque
TTITLE16=Elegie
TTITLE17=Sweet Lorraine
TTITLE18=Lullaby Of The Leaves
TTITLE19=Get Happy
EXTD=YEAR: 2002
EXTT0=
EXTT1=
EXTT2=
EXTT3=
EXTT4=
EXTT5=
EXTT6=
EXTT7=
EXTT8=
EXTT9=
EXTT10=
EXTT11=
EXTT12=
EXTT13=
EXTT14=
EXTT15=
EXTT16=
EXTT17=
EXTT18=
EXTT19=
PLAYORDER=
